<svg xmlns="http://www.w3.org/2000/svg" width="500" height="500" viewBox="0 0 500 500">
  <defs>
    <style>
      .cls-1 {
        fill: #30ff79;
        fill-rule: evenodd;
      }
    </style>
  </defs>
  <path id="fever_trip" data-name="fever trip" class="cls-1" d="M132.925,228.022V161.391H149.5V143.005H132.925v-6.522q0-10.372,12.022-10.372a24.223,24.223,0,0,1,6.522.707l-0.079-19.486a52.66,52.66,0,0,0-12.415-1.65q-15.48,0-24.043,8.014t-8.565,22.551v6.758H94.031v18.386h12.336v66.631h26.558Zm84.664-2.475a33.814,33.814,0,0,0,14.025-10.883l-12.1-14.3q-7.072,8.8-19.644,8.8-7.622,0-12.414-4.086a19.08,19.08,0,0,1-6.208-11.236h52.645V183.549q0-19.878-10.372-31t-28.287-11.118q-12.729,0-22,5.461a35.362,35.362,0,0,0-14.1,15.44,52.207,52.207,0,0,0-4.833,23.022v2.2q0,18.7,12.1,30.369t31.665,11.668A47.411,47.411,0,0,0,217.589,225.547Zm-12.847-60.188q3.378,3.5,3.221,9.861v2.043H181.248q2.2-15.4,13.829-15.4Q201.362,161.862,204.742,165.359Zm59.481-22.354H236.25l27.737,85.017h27.029l27.737-85.017H290.859l-13.436,53.509Zm122.065,82.542a33.814,33.814,0,0,0,14.025-10.883l-12.1-14.3q-7.073,8.8-19.644,8.8-7.622,0-12.415-4.086a19.084,19.084,0,0,1-6.207-11.236h52.645V183.549q0-19.878-10.372-31t-28.287-11.118q-12.729,0-22,5.461a35.374,35.374,0,0,0-14.1,15.44A52.22,52.22,0,0,0,323,185.356v2.2q0,18.7,12.1,30.369t31.665,11.668A47.415,47.415,0,0,0,386.288,225.547Zm-12.847-60.188q3.377,3.5,3.221,9.861v2.043H349.947q2.2-15.4,13.829-15.4Q370.061,161.862,373.441,165.359Zm91.7-22.983a25.809,25.809,0,0,0-7.386-.943q-11.944,0-18.622,12.493l-0.865-10.921H413.435v85.017h26.479V174.2q3.537-7.857,16.03-7.858l8.721,0.629Zm-360.263,111.5v21.137H94.031V293.4h10.843V335.6q0,13.123,6.522,19.565t20.193,6.443a48.9,48.9,0,0,0,14.929-2.278V340.388a38.764,38.764,0,0,1-6.6.472q-5.109,0-6.836-1.886t-1.728-6.679V293.4H145.34V275.015H131.354V253.878h-26.48Zm102.775,20.508a25.809,25.809,0,0,0-7.386-.943q-11.944,0-18.622,12.493l-0.864-10.921h-24.83v85.017h26.48V306.209q3.535-7.857,16.029-7.858l8.722,0.629Zm37.009,0.629H218.1v85.017h26.559V275.015Zm-24.044-12.651a17.37,17.37,0,0,0,21.215,0,12.562,12.562,0,0,0,0-18.543,17.37,17.37,0,0,0-21.215,0A12.562,12.562,0,0,0,220.614,262.364ZM339.89,316.9q0-20.272-8.722-31.862t-24.437-11.59a24.508,24.508,0,0,0-20.036,9.429l-0.786-7.857H261.158v117.7h26.48v-39.68a24.5,24.5,0,0,0,19.25,8.564q15.164,0,24.083-11.825t8.919-31.626V316.9Zm-26.48,2.436q-0.395,21.844-13.043,21.843-9.273,0-12.729-7.072V300.63q3.141-6.757,12.572-6.758,13.2,0,13.2,22.63v2.829Z"/>
</svg>
