<svg xmlns="http://www.w3.org/2000/svg" xmlns:xlink="http://www.w3.org/1999/xlink" width="25" height="25" viewBox="0 0 25 25">
  <defs>
    <rect id="rect-1" width="25" height="25" x="0" y="0"/>
    <mask id="mask-2" maskContentUnits="userSpaceOnUse" maskUnits="userSpaceOnUse">
      <rect width="25" height="25" x="0" y="0" fill="black"/>
      <use fill="white" xlink:href="#rect-1"/>
    </mask>
    <path id="path-4" fill-rule="evenodd" d="M0 0v25h25V0H0z"/>
    <mask id="mask-5" maskContentUnits="userSpaceOnUse" maskUnits="userSpaceOnUse">
      <rect width="25" height="25" x="0" y="0" fill="black"/>
      <use fill="white" xlink:href="#path-4"/>
    </mask>
  </defs>
  <g>
    <use fill="none" xlink:href="#rect-1"/>
    <g mask="url(#mask-2)">
      <rect width="25" height="25" x="0" y="0" fill="none" rx="0" ry="0"/>
      <g>
        <use fill="none" xlink:href="#path-4"/>
        <g mask="url(#mask-5)">
          <rect width="909.375" height="628.125" x="-1.563" y="-1.563" fill="none" rx="0" ry="0"/>
          <path fill="rgb(146,255,7)" fill-rule="evenodd" d="M17.6134491 15.625c-1.25 0-2.32810974.75000763-2.82814026 1.8125l-5.59371948-4.04688263C9.26971436 13.109375 9.3321991 12.8125 9.3321991 12.5s-.06248474-.609375-.14060974-.89061737L14.78530884 7.5625c.50003052 1.06249237 1.57814026 1.8125 2.82814026 1.8125 1.71875 0 3.125-1.40625 3.125-3.125s-1.40625-3.125-3.125-3.125c-1.57814026 0-2.87498474 1.171875-3.07815552 2.68749237l-6.14059448 4.453125C7.81654358 9.71874237 7.05093384 9.375 6.2071991 9.375c-1.71875 0-3.125 1.40625-3.125 3.125s1.40625 3.125 3.125 3.125c.84373474 0 1.60934448-.34374237 2.1875-.89061737l6.14059448 4.453125C14.73846436 20.703125 16.03530884 21.875 17.6134491 21.875c1.71875 0 3.125-1.40625 3.125-3.125s-1.40625-3.125-3.125-3.125zm0-10.9375c.859375 0 1.5625.703125 1.5625 1.5625s-.703125 1.5625-1.5625 1.5625-1.5625-.703125-1.5625-1.5625.703125-1.5625 1.5625-1.5625zm-11.40625 9.375c-.859375 0-1.5625-.703125-1.5625-1.5625s.703125-1.5625 1.5625-1.5625 1.5625.703125 1.5625 1.5625-.703125 1.5625-1.5625 1.5625zm11.40625 6.25c-.859375 0-1.5625-.703125-1.5625-1.5625s.703125-1.5625 1.5625-1.5625 1.5625.703125 1.5625 1.5625-.703125 1.5625-1.5625 1.5625z"/>
        </g>
      </g>
    </g>
  </g>
</svg>
