<svg xmlns="http://www.w3.org/2000/svg" xmlns:xlink="http://www.w3.org/1999/xlink" width="20" height="20" viewBox="0 0 20 20">
  <defs>
    <rect id="rect-1" width="20" height="20" x="0" y="0"/>
    <mask id="mask-2" maskContentUnits="userSpaceOnUse" maskUnits="userSpaceOnUse">
      <rect width="20" height="20" x="0" y="0" fill="black"/>
      <use fill="white" xlink:href="#rect-1"/>
    </mask>
  </defs>
  <g>
    <use fill="none" xlink:href="#rect-1"/>
    <g mask="url(#mask-2)">
      <path fill="rgb(146,255,7)" fill-rule="evenodd" d="M13.75 16.09375H4.21875c-.17257813 0-.3125-.13992187-.3125-.3125V6.25c0-.17257813.13992187-.3125.3125-.3125h6.6796875c.17257813 0 .3125.13992187.3125.3125s-.13992187.3125-.3125.3125H4.53125v8.90625h8.90625V9.1015625c0-.17257812.13992187-.3125.3125-.3125s.3125.13992188.3125.3125V15.78125c0 .17257813-.13992187.3125-.3125.3125z"/>
      <path fill="rgb(146,255,7)" fill-rule="evenodd" d="M11.23675537 3.90625H15.78125c.1725769 0 .3125.1399231.3125.3125V8.75c0 .1725769-.1399231.3125-.3125.3125s-.3125-.1399231-.3125-.3125V4.95928955l-5.60726929 5.61453247c-.01409912.0140686-.02923584.02636719-.04510498.03723145.15686035.3393402.09646607.75437927-.18328857 1.03414917-.17926026.17921447-.41418457.26885986-.64910889.26885986-.23492431 0-.46987915-.08964539-.64907837-.26885986-.35848999-.35849-.35848999-.93972779 0-1.29821778.17922974-.179245.41415406-.26885986.64907837-.26885986.13793945 0 .27560425.03179932.40228272.09359741.00982666-.01379394.02062988-.02714538.0329895-.03953552L15.01293945 4.53125h-3.77618408c-.1725769 0-.3125-.1399231-.3125-.3125s.1399231-.3125.3125-.3125zm-2.2527771 7.3828125c.0453186 0 .13250733-.01113892.20718384-.08581543.074646-.074646.08578491-.16183472.08578491-.20715332 0-.0453186-.01113891-.13250732-.08578491-.20715332-.07467651-.07467651-.16186524-.08581543-.20718384-.08581543-.0453186 0-.13250732.01113892-.20715332.08578491-.07467651.074646-.08581543.16186524-.08581543.20718384 0 .0453186.01113892.13253784.08581543.20718384.074646.074646.16183472.08578491.20715332.08578491z"/>
    </g>
  </g>
</svg>
